<svg xmlns="http://www.w3.org/2000/svg" width="573.849" height="588.436" viewBox="0 0 573.849 588.436"><defs><style>.a{fill:#70a5ee;}.b{fill:#bebcba;}.c{fill:#90c0fc;}.d{fill:#d4d4d4;}.e{fill:#e6e6e6;}.f{fill:silver;}.g{fill:#4b77b8;}.h{fill:#578ad6;}.i{fill:#5e95e9;}.j{fill:#64a0fb;}.k{fill:#385988;}.l{fill:#e6f1fd;}.m{fill:#f4f4f4;}.n{fill:#e9e9e9;}.o{fill:#dcdcdc;}.p{fill:#2e3048;}.q{fill:#dba585;}.r{fill:#e3d6cd;}.s{fill:#c8995f;}.t{fill:#454971;}.u{fill:#3e4148;}.v{fill:#dcd0c8;}.w{fill:#363957;}.x{fill:#2a2c41;}.y{fill:#5f76af;}.z{fill:#6881be;}.aa{fill:#394762;}.ab{fill:#3f4d6e;}.ac{fill:#343d57;}.ad{fill:#e27d58;}.ae{fill:#393d3f;}.af{fill:#c75454;}.ag{fill:#e9a58b;}.ah{fill:#bd8a6d;}.ai{fill:#3f4165;}.aj{fill:#585c90;}.ak{fill:#cd7250;}.al{fill:#d4cec2;}.am{fill:#dba686;}.an{fill:#4c507d;}.ao{fill:#eecaa2;}.ap{fill:#b38870;}.aq{fill:#3a5271;}.ar{fill:#c99a7d;}.as{fill:#9b583e;}</style></defs><g transform="translate(-1454.69 -167)"><g transform="translate(1668.109 408.885)"><g transform="translate(0)"><path class="a" d="M2033.222,1008.7h-63.695v-258.2h63.695Zm-62.831-.864h61.969V751.369h-61.969Z" transform="translate(-1969.527 -750.505)"/></g></g><g transform="translate(1454.69 261.373)"><path class="b" d="M1984.181,663.751l-.773-.387a15.36,15.36,0,0,1,1.668-2.064c.617-.708,1.385-1.589,2.275-2.653l.662.555c-.894,1.07-1.667,1.955-2.286,2.665A18.012,18.012,0,0,0,1984.181,663.751Zm7.6-9.315-.692-.515c1.189-1.594,2.356-3.25,3.467-4.926l.719.478C1994.152,651.162,1992.976,652.832,1991.778,654.437Zm-518.929-6.281-.16-.171.635-.586.156.167Zm525.644-3.826-.743-.438c1.01-1.71,1.994-3.482,2.927-5.264l.765.4C2000.5,640.823,1999.51,642.607,1998.493,644.33Zm-529.611-1.11c-1.116-1.588-2.209-3.32-3.247-5.146l.75-.426c1.026,1.8,2.1,3.51,3.2,5.076Zm535.241-9.631-.783-.364c.834-1.8,1.641-3.66,2.4-5.523l.8.326C2005.777,629.9,2004.965,631.773,2004.124,633.588Zm-541.274-.918c-.844-1.805-1.642-3.687-2.372-5.594l.806-.308c.723,1.886,1.512,3.749,2.348,5.536Zm545.847-10.31-.814-.289c.664-1.871,1.3-3.8,1.889-5.719l.825.253C2010,618.539,2009.365,620.477,2008.7,622.361ZM1458.5,621.333c-.59-1.931-1.123-3.9-1.581-5.866l.841-.2c.453,1.943.98,3.9,1.565,5.808Zm553.744-10.559-.835-.219c.5-1.921.972-3.893,1.4-5.859l.844.182C2013.225,606.857,2012.75,608.841,2012.247,610.775Zm-556.5-1.266c-.324-2.009-.576-4.037-.75-6.029l.86-.074c.172,1.97.423,3.978.744,5.965Zm559.081-10.574-.851-.15c.346-1.955.662-3.958.938-5.952l.854.119C2015.492,594.956,2015.174,596.971,2014.827,598.935Zm-560.133-1.528c0-.271,0-.539,0-.81,0-1.767.063-3.539.187-5.268l.86.061c-.122,1.707-.184,3.46-.184,5.207,0,.266,0,.534.005.8Zm561.8-10.47-.858-.088c.2-1.976.372-4,.507-6.006l.861.058C2016.866,582.923,2016.694,584.953,2016.492,586.938Zm-560.065-1.512-.852-.137c.324-2.015.744-4.017,1.244-5.954l.836.218C1457.161,581.461,1456.747,583.438,1456.427,585.426Zm560.882-10.571-.863-.03c.069-1.986.1-4.014.111-6.029l.863,0C2017.415,570.822,2017.378,572.859,2017.309,574.855Zm-557.866-1.028-.811-.3a58.936,58.936,0,0,1,2.394-5.592l.775.38A58.21,58.21,0,0,0,1459.443,573.827Zm5.277-10.743-.731-.46a58.623,58.623,0,0,1,3.5-4.97l.678.534A57.512,57.512,0,0,0,1464.72,563.085Zm551.762-.318c-.054-1.986-.139-4.014-.253-6.026l.861-.049c.115,2.021.2,4.057.254,6.051Zm-544.37-9.093-.622-.6c1.386-1.437,2.876-2.837,4.428-4.163l.561.656C1474.948,550.875,1473.479,552.255,1472.111,553.674Zm543.694-2.951c-.166-1.979-.364-4-.585-6l.857-.1c.224,2.013.422,4.042.588,6.028Zm-534.6-4.843-.5-.7c1.615-1.149,3.329-2.264,5.088-3.311l.443.742C1484.5,543.643,1482.806,544.744,1481.208,545.88Zm10.3-6.148-.386-.772c1.769-.884,3.624-1.734,5.514-2.527l.334.8C1495.1,538.014,1493.262,538.857,1491.51,539.732Zm522.971-1c-.268-1.969-.567-3.976-.887-5.968l.852-.138c.322,2,.621,4.014.891,5.99Zm-511.9-3.661-.287-.815c1.864-.655,3.806-1.279,5.771-1.854l.242.828C1506.361,533.8,1504.434,534.42,1502.584,535.071Zm11.541-3.394-.2-.839c1.92-.464,3.912-.9,5.917-1.3l.168.847C1518.012,530.781,1516.032,531.215,1514.126,531.676Zm11.812-2.341-.135-.852c1.951-.309,3.969-.591,6-.839l.106.856C1529.887,528.748,1527.879,529.029,1525.938,529.335Zm11.96-1.472-.078-.859.091-.009c1.966-.177,3.953-.385,5.907-.621l.1.857c-1.962.235-3.958.445-5.933.623Zm474.668-1.047q-.193-1.042-.395-2.1c-.245-1.273-.507-2.557-.778-3.82l.845-.181c.272,1.268.534,2.559.781,3.837q.2,1.056.4,2.1Zm-462.646-.4-.128-.854c1.975-.3,3.976-.631,5.945-.989l.154.85C1553.914,525.787,1551.905,526.12,1549.92,526.419Zm11.908-2.164-.181-.845c1.954-.416,3.93-.869,5.876-1.344l.2.838C1565.774,523.382,1563.789,523.836,1561.828,524.255Zm11.756-2.874-.23-.832c1.92-.529,3.867-1.1,5.787-1.686l.254.825C1577.468,520.281,1575.513,520.85,1573.585,521.381Zm11.571-3.549-.277-.818c1.885-.636,3.8-1.311,5.686-2.006l.3.81C1588.966,516.517,1587.047,517.2,1585.156,517.833Zm424.88-2.805c-.485-1.948-1.007-3.908-1.553-5.824l.832-.237c.547,1.926,1.072,3.895,1.559,5.853Zm-413.522-1.373-.319-.8c1.844-.733,3.72-1.507,5.573-2.3l.341.794C1600.247,512.142,1598.365,512.919,1596.514,513.655Zm11.131-4.752-.358-.786c1.8-.822,3.643-1.683,5.461-2.563l.376.777C1611.3,507.213,1609.455,508.078,1607.644,508.9Zm10.882-5.253-.391-.769c1.759-.9,3.553-1.833,5.335-2.785l.407.762C1622.09,501.814,1620.291,502.753,1618.526,503.65Zm388.208-.214c-.615-1.911-1.27-3.831-1.948-5.7l.813-.293c.68,1.882,1.339,3.811,1.958,5.731Zm-377.556-5.473-.421-.753c1.721-.961,3.483-1.963,5.238-2.981l.433.748C1632.67,496,1630.9,497,1629.178,497.964Zm373.458-5.861c-.75-1.861-1.541-3.728-2.353-5.548l.789-.351c.815,1.829,1.613,3.706,2.364,5.577Zm-363.005-.2-.445-.74c1.687-1.013,3.419-2.07,5.15-3.141l.454.734C1643.057,489.831,1641.321,490.89,1639.631,491.9Zm10.277-6.362-.462-.729c1.646-1.048,3.353-2.147,5.073-3.267l.471.723C1653.269,483.391,1651.559,484.492,1649.908,485.542Zm347.818-4.444c-.884-1.8-1.813-3.6-2.761-5.356l.76-.41c.953,1.762,1.887,3.575,2.775,5.385Zm-337.688-2.151-.477-.719c1.607-1.069,3.295-2.2,5.015-3.361l.484.716C1663.338,476.746,1661.649,477.878,1660.039,478.948Zm10.018-6.761-.488-.713q2.5-1.706,4.976-3.422l.491.711Q1672.55,470.479,1670.056,472.187ZM1992,470.5c-1.02-1.724-2.085-3.449-3.166-5.125l.726-.468c1.088,1.686,2.159,3.419,3.184,5.154Zm-312-5.173-.492-.709q2.483-1.724,4.957-3.449l.494.709Q1682.48,463.6,1680,465.324Zm305.471-4.948c-1.155-1.643-2.357-3.28-3.573-4.87l.686-.525c1.222,1.6,2.431,3.245,3.593,4.9Zm-295.56-1.951-.493-.709q2.48-1.725,4.958-3.444l.492.71Q1692.388,456.7,1689.909,458.425Zm9.922-6.873-.49-.712q2.489-1.712,4.983-3.408l.485.714Q1702.317,449.841,1699.831,451.552Zm278.3-.764c-1.282-1.54-2.612-3.075-3.954-4.559l.641-.579c1.35,1.493,2.687,3.036,3.975,4.585Zm-268.324-6.017-.481-.718c1.716-1.149,3.408-2.272,5.028-3.339l.474.722C1713.21,442.5,1711.52,443.622,1709.807,444.771Zm260.237-2.931c-1.4-1.429-2.852-2.846-4.31-4.213l.592-.63c1.466,1.377,2.923,2.8,4.333,4.239Zm-250.163-3.692-.466-.727c1.724-1.109,3.44-2.2,5.1-3.235l.458.732C1723.314,435.954,1721.6,437.04,1719.881,438.148Zm241.378-4.552c-1.509-1.3-3.069-2.6-4.634-3.84l.537-.676c1.575,1.251,3.142,2.55,4.662,3.863ZM1730.1,431.755l-.448-.739c1.745-1.058,3.489-2.1,5.185-3.095l.437.745C1733.577,429.659,1731.838,430.7,1730.1,431.755Zm221.743-5.644c-1.609-1.176-3.268-2.335-4.927-3.446l.481-.718c1.668,1.118,3.336,2.283,4.955,3.466Zm-211.345-.447-.423-.751c1.773-1,3.553-1.98,5.292-2.915l.408.76C1744.039,423.691,1742.262,424.669,1740.494,425.664Zm10.613-5.707-.393-.77c1.813-.926,3.633-1.832,5.415-2.692l.376.778C1754.728,418.13,1752.913,419.033,1751.107,419.957Zm190.746-.534c-1.7-1.043-3.451-2.067-5.2-3.045l.422-.753c1.759.983,3.518,2.013,5.229,3.062Zm-179.888-4.709-.355-.787c1.847-.838,3.713-1.655,5.545-2.428l.336.8C1765.665,413.065,1763.806,413.879,1761.964,414.715Zm169.375-1.171c-1.778-.9-3.6-1.786-5.425-2.625l.363-.783c1.831.842,3.666,1.73,5.453,2.639Zm-158.257-3.521-.314-.8c1.89-.738,3.8-1.452,5.682-2.123l.291.814C1776.868,408.577,1774.965,409.288,1773.081,410.023Zm147.312-1.516c-1.842-.763-3.728-1.5-5.61-2.2l.3-.81c1.89.7,3.788,1.445,5.639,2.213Zm-135.932-2.542-.265-.822c1.924-.62,3.873-1.215,5.79-1.767l.239.829C1788.317,404.755,1786.378,405.348,1784.462,405.965Zm124.635-1.65c-1.893-.623-3.829-1.222-5.759-1.78l.24-.829c1.939.561,3.886,1.164,5.789,1.79Zm-113.053-1.682-.213-.837c.9-.228,1.821-.454,2.729-.668,1.049-.249,2.114-.493,3.164-.727l.188.842c-1.047.234-2.108.478-3.153.725C1797.856,402.182,1796.942,402.4,1796.043,402.633Zm101.478-1.67c-1.932-.485-3.907-.945-5.871-1.366l.18-.844c1.974.423,3.959.885,5.9,1.373ZM1807.813,400l-.167-.847c1.976-.393,3.979-.765,5.949-1.107l.146.851C1811.777,399.236,1809.784,399.607,1807.813,400Zm77.923-1.563c-1.962-.352-3.965-.675-5.951-.963l.123-.854c2,.289,4.008.613,5.979.967Zm-66.04-.5-.126-.855c2-.295,4.015-.566,6-.807l.1.856C1823.7,397.374,1821.685,397.645,1819.7,397.939Zm54.108-1.233c-1.978-.222-4-.415-6-.575l.068-.86c2.012.16,4.04.354,6.029.576Zm-42.136-.221-.081-.861c2.009-.19,4.039-.355,6.034-.489l.057.861C1835.693,396.131,1833.67,396.295,1831.669,396.485Zm30.118-.739c-1.991-.1-4.019-.165-6.028-.2l.016-.863c2.017.037,4.054.106,6.053.2Zm-18.086-.073-.034-.863c2.018-.079,4.054-.131,6.054-.153l.009.864C1847.739,395.543,1845.711,395.6,1843.7,395.674Z" transform="translate(-1454.69 -394.658)"/></g><g transform="translate(1825.179 194.796)"><g transform="translate(0 0)"><path class="c" d="M2437.944,272.284a41.778,41.778,0,0,0-4.471-10.781l4.551-6.847-6.315-6.315-6.315-6.314-6.846,4.552a41.823,41.823,0,0,0-10.781-4.472l-1.62-8.052h-17.864l-1.621,8.052a41.8,41.8,0,0,0-10.78,4.472l-6.845-4.552-6.316,6.314-6.315,6.315,4.552,6.847a41.744,41.744,0,0,0-4.471,10.781l-8.054,1.62v17.863l8.054,1.621a41.739,41.739,0,0,0,4.471,10.78l-4.552,6.847,6.315,6.316,6.316,6.315,6.845-4.552a41.769,41.769,0,0,0,10.78,4.471l1.621,8.054h17.864l1.62-8.054a41.792,41.792,0,0,0,10.781-4.471l6.846,4.552,6.315-6.315,6.315-6.316-4.551-6.847a41.773,41.773,0,0,0,4.471-10.78l8.053-1.621V273.9Zm-40.73,41.848a31.3,31.3,0,1,1,31.3-31.3A31.3,31.3,0,0,1,2397.215,314.132Z" transform="translate(-2348.431 -234.053)"/></g></g><g transform="translate(1506.811 299.929)"><g transform="translate(0)"><g transform="translate(0 165.222)"><path class="a" d="M1596.485,886.238a7.663,7.663,0,0,0,.729.579l-.579.728L1581.151,907l-.727-.581,15.48-19.456Z" transform="translate(-1580.424 -886.238)"/></g><g transform="translate(27.937 146.66)"><path class="a" d="M1708.056,841.461a6.814,6.814,0,0,0,.173.917l-.915.172-58.406,11.05-.918.174a6.8,6.8,0,0,0-.173-.914l.917-.174,58.4-11.049Z" transform="translate(-1647.817 -841.461)"/></g><g transform="translate(98.603 86.658)"><path class="a" d="M1849.874,697.184l-.47.806-29.841,51.04-.471.8a7.36,7.36,0,0,0-.8-.469l.472-.805,29.841-51.039.471-.805A6.933,6.933,0,0,0,1849.874,697.184Z" transform="translate(-1818.287 -696.716)"/></g><g transform="translate(140.186 60.216)"><path class="a" d="M1975.281,633.378c.047.15.1.3.155.439l-56.557,17.826c-.036-.151-.078-.3-.125-.449s-.1-.294-.154-.439l56.557-17.825C1975.192,633.08,1975.234,633.229,1975.281,633.378Z" transform="translate(-1918.599 -632.93)"/></g><g transform="translate(206.409)"><path class="a" d="M2103.362,488.063l-23.772,50.9-.4.844a6.913,6.913,0,0,0-.842-.393l.395-.845,23.774-50.9Z" transform="translate(-2078.351 -487.669)"/></g></g><g transform="translate(12.751 151.686)"><path class="a" d="M1616.9,853.963a8.169,8.169,0,0,0-2.987,13.886,7.74,7.74,0,0,0,.731.578,8.167,8.167,0,0,0,12.817-7.73,7.731,7.731,0,0,0-.174-.914c-.039-.16-.085-.322-.135-.483A8.184,8.184,0,0,0,1616.9,853.963Zm9.643,6.908a7.238,7.238,0,0,1-11.319,6.829,7.674,7.674,0,0,1-.729-.579,7.24,7.24,0,1,1,11.769-7.54c.039.126.075.25.107.377A6.773,6.773,0,0,1,1626.543,860.871Z" transform="translate(-1611.184 -853.585)"/></g><g transform="translate(87.189 137.604)"><path class="a" d="M1803.441,820.983a8.031,8.031,0,0,0-.8-.469,8.167,8.167,0,0,0-11.818,8.332,7.641,7.641,0,0,0,.176.914c.038.161.084.323.135.484a8.171,8.171,0,1,0,12.309-9.261Zm-2.342,13.711a7.251,7.251,0,0,1-9.08-4.729c-.039-.125-.075-.249-.107-.376a6.777,6.777,0,0,1-.173-.917,7.235,7.235,0,0,1,10.427-7.353,7.4,7.4,0,0,1,.8.469,7.238,7.238,0,0,1-1.871,12.906Z" transform="translate(-1790.752 -819.615)"/></g><g transform="translate(125.262 72.485)"><path class="a" d="M1898.409,667.8a8.172,8.172,0,1,0,.28.888c-.037-.149-.078-.3-.126-.449S1898.466,667.944,1898.409,667.8Zm-5.464,9.8a7.215,7.215,0,0,1-5.421-.438,6.935,6.935,0,0,1-.8-.468,7.24,7.24,0,1,1,10.8-8.617c.055.146.106.29.154.439s.089.3.125.449A7.247,7.247,0,0,1,1892.945,677.6Z" transform="translate(-1882.597 -662.525)"/></g><g transform="translate(195.603 50.315)"><path class="a" d="M2064.328,610.026a8.279,8.279,0,0,0-.844-.395,8.166,8.166,0,0,0-10.949,9.594c.035.149.078.3.125.449s.1.3.154.439a8.171,8.171,0,1,0,11.514-10.088Zm-1.7,14.1a7.248,7.248,0,0,1-8.928-4.29c-.056-.144-.108-.29-.155-.439s-.088-.3-.125-.448a7.236,7.236,0,0,1,9.666-8.469,6.937,6.937,0,0,1,.843.393,7.238,7.238,0,0,1-1.3,13.254Z" transform="translate(-2052.283 -609.045)"/></g></g><g transform="translate(1754.43 364.809)"><path class="a" d="M2207.216,964.086h-29.454V644.18h29.454Zm-27.44-2.015H2205.2V646.2h-25.425Z" transform="translate(-2177.762 -644.18)"/></g><g transform="translate(1754.842 374.775)"><g transform="translate(0.002 293.339)"><rect class="a" width="31.018" height="2.551" transform="translate(0 14.471) rotate(-27.809)"/></g><g transform="translate(0 244.452)"><rect class="a" width="31.019" height="2.552" transform="translate(0 14.463) rotate(-27.792)"/></g><g transform="translate(0.002 195.559)"><rect class="a" width="31.017" height="2.551" transform="translate(0 14.471) rotate(-27.809)"/></g><g transform="translate(0.002 146.67)"><rect class="a" width="31.018" height="2.551" transform="translate(0 14.469) rotate(-27.805)"/></g><g transform="translate(0.002 97.781)"><rect class="a" width="31.018" height="2.551" transform="translate(0 14.469) rotate(-27.805)"/></g><g transform="translate(0.002 48.89)"><rect class="a" width="31.018" height="2.551" transform="translate(0 14.47) rotate(-27.807)"/></g><g transform="translate(0.002 0)"><rect class="a" width="31.018" height="2.552" transform="translate(0 14.471) rotate(-27.809)"/></g></g><g transform="translate(1879.895 364.809)"><g transform="translate(0)"><path class="a" d="M2509.878,964.086h-29.455V644.18h29.455Zm-27.44-2.015h25.425V646.2h-25.425Z" transform="translate(-2480.423 -644.18)"/></g></g><g transform="translate(1880.306 374.776)"><g transform="translate(0.002 293.339)"><rect class="a" width="31.018" height="2.551" transform="translate(0 14.467) rotate(-27.801)"/></g><g transform="translate(0 244.452)"><rect class="a" width="31.019" height="2.552" transform="translate(0 14.459) rotate(-27.784)"/></g><g transform="translate(0.002 195.559)"><rect class="a" width="31.017" height="2.551" transform="translate(0 14.467) rotate(-27.801)"/></g><g transform="translate(0.002 146.67)"><rect class="a" width="31.018" height="2.551" transform="translate(0 14.465) rotate(-27.797)"/></g><g transform="translate(0.002 97.781)"><rect class="a" width="31.018" height="2.551" transform="translate(0 14.465) rotate(-27.797)"/></g><g transform="translate(0.002 48.89)"><rect class="a" width="31.018" height="2.551" transform="translate(0 14.466) rotate(-27.799)"/></g><g transform="translate(0.002 0)"><rect class="a" width="31.018" height="2.552" transform="translate(0 14.467) rotate(-27.801)"/></g></g><g transform="translate(1463.528 513.432)"><g transform="translate(0)"><path class="d" d="M1503.113,1016.417l-27.1-12.4,8.864-1.31Z" transform="translate(-1476.011 -1002.708)"/></g><g transform="translate(11.375 1.524)"><path class="e" d="M1519.179,1018.569l-9.019-12.185-6.708.362Z" transform="translate(-1503.452 -1006.384)"/></g><g transform="translate(5.978 4.162)"><path class="f" d="M1490.687,1012.747l-.254,3.309,21.124,6.239Z" transform="translate(-1490.433 -1012.747)"/></g></g><g transform="translate(1938.288 530.942)"><g transform="translate(0)"><path class="c" d="M2621.287,1044.947h39.564v34.717l-6.04-6.04h-33.524Z" transform="translate(-2621.287 -1044.947)"/></g></g><g transform="translate(1789.816 248.233)"><g transform="translate(0)"><rect class="g" width="84.147" height="305.327"/></g></g><g transform="translate(1681.874 428.511)"><rect class="h" width="62.832" height="257.332"/></g><g transform="translate(1593.893 489.442)"><rect class="i" width="62.832" height="196.401"/></g><g transform="translate(1582.908 477.331)"><path class="i" d="M1827.689,1112.885h-63.7V915.62h63.7Zm-62.832-.864h61.968V916.483h-61.968Z" transform="translate(-1763.993 -915.62)"/></g><g transform="translate(1505.915 549.179)"><rect class="j" width="62.832" height="136.664"/></g><g transform="translate(1493.589 539.355)"><g transform="translate(0)"><path class="j" d="M1612.222,1202.769h-63.695V1065.241h63.695Zm-62.833-.863h61.969v-135.8h-61.969Z" transform="translate(-1548.527 -1065.241)"/></g></g><g transform="translate(1546.224 631.859)"><g transform="translate(0 0)"><path class="k" d="M1760.578,1410.1l-.955-.039,4.808-120.716h-83.167l-4.811,120.755-.955-.039,4.847-121.672h85.08Z" transform="translate(-1675.499 -1288.392)"/></g></g><g transform="translate(1550.12 631.859)"><g transform="translate(0 0)"><path class="k" d="M1773.871,1410.1l-4.81-120.755h-83.167l4.808,120.716-.955.039-4.849-121.711h85.08l4.846,121.672Z" transform="translate(-1684.899 -1288.392)"/></g></g><g transform="translate(1550.618 593.082)"><g transform="translate(0)"><path class="k" d="M1690.928,1316.063h84.123l-4.827-121.213H1686.1Z" transform="translate(-1686.1 -1194.85)"/></g></g><g transform="translate(1544.329 593.082)"><path class="l" d="M1755.052,1316.063H1670.93l4.828-121.213h84.122Z" transform="translate(-1670.93 -1194.85)"/></g><g transform="translate(1558.597 602.822)"><path class="c" d="M1731.815,1227.388a13.631,13.631,0,0,0-25.669,9.181c.1.289.215.572.335.85a13.632,13.632,0,0,0,25.334-10.031Zm-9.393,14.214a10.207,10.207,0,0,1-12.812-5.545c-.09-.208-.174-.421-.253-.638a10.22,10.22,0,1,1,13.065,6.183Z" transform="translate(-1705.347 -1218.344)"/></g><g transform="translate(1789.816 167)"><g transform="translate(0)"><path class="c" d="M2305.2,167c-37.034,37.034-42.073,81.233-42.073,81.233h84.146S2342.232,204.034,2305.2,167Z" transform="translate(-2263.124 -167)"/></g></g><g transform="translate(1599.664 602.211)"><g transform="translate(9.07 0)"><path class="c" d="M1830.4,1219.982c-.552-.645-1.132-1.278-1.725-1.885-.594.607-1.172,1.24-1.726,1.885l-.656-.561c.661-.772,1.36-1.527,2.076-2.245l.306-.3.306.3c.717.718,1.414,1.472,2.075,2.245Z" transform="translate(-1826.295 -1216.872)"/></g><g transform="translate(0 7.252)"><path class="c" d="M1805.278,1320.178h-.863v-5.78h.863Zm0-11.56h-.863v-5.78h.863Zm0-11.562h-.863v-5.781h.863Zm0-11.56h-.863v-5.78h.863Zm0-11.561h-.863v-5.782h.863Zm0-11.562h-.863v-5.78h.863Zm0-11.56h-.863V1249h.031a24.2,24.2,0,0,1,.829-4l.83.235a27.723,27.723,0,0,0-.828,3.788Zm2.783-10.945-.787-.352a41.4,41.4,0,0,1,2.75-5.15l.732.461A40.408,40.408,0,0,0,1808.061,1239.867Z" transform="translate(-1804.415 -1234.365)"/></g><g transform="translate(0 98.838)"><path class="c" d="M1807.869,1458.754h-3.454V1455.3h.863v2.59h2.591Z" transform="translate(-1804.415 -1455.301)"/></g><g transform="translate(8.786 101.428)"><rect class="c" width="5.33" height="0.863"/></g><g transform="translate(19.449 98.838)"><path class="c" d="M1854.785,1458.754h-3.453v-.863h2.591v-2.59h.863Z" transform="translate(-1851.332 -1455.301)"/></g><g transform="translate(22.039 30.596)"><path class="c" d="M1858.444,1353.234h-.863v-5.687h.863Zm0-11.374h-.863v-5.687h.863Zm0-11.373h-.863V1324.8h.863Zm0-11.375h-.863v-5.687h.863Zm0-11.373h-.863v-5.686h.863Zm0-11.373h-.863v-5.688h.863Z" transform="translate(-1857.581 -1290.679)"/></g><g transform="translate(21.457 18.82)"><path class="c" d="M1857.621,1268.361h-.863v-3a25.445,25.445,0,0,0-.582-2.881l.835-.212a24.473,24.473,0,0,1,.607,3.018l0,.05Z" transform="translate(-1856.176 -1262.272)"/></g><g transform="translate(16.729 7.524)"><path class="c" d="M1847.551,1240.829a40.5,40.5,0,0,0-2.779-5.35l.735-.456a41.59,41.59,0,0,1,2.838,5.465Z" transform="translate(-1844.772 -1235.023)"/></g></g><g transform="translate(1793.609 632.297)"><g transform="translate(0)"><path class="m" d="M2362.544,1304.857a34.026,34.026,0,0,0-9.941,1.46,27.947,27.947,0,0,0-26.017-16.869c-13.152,0-24.181,8.643-27.143,20.279a20.741,20.741,0,0,0-7.343-1.333c-10.949,0-19.826,8.437-19.826,18.844h118.2C2390.473,1314.879,2377.969,1304.857,2362.544,1304.857Z" transform="translate(-2272.273 -1289.449)"/></g></g><g transform="translate(1727.225 255.484)"><path class="n" d="M2176.182,392.584a21.916,21.916,0,0,0-7.053,1.15,19.879,19.879,0,0,0-18.46-13.282c-9.332,0-17.159,6.8-19.259,15.966a13.428,13.428,0,0,0-5.21-1.049c-7.769,0-14.067,6.643-14.067,14.838H2196C2196,400.475,2187.126,392.584,2176.182,392.584Z" transform="translate(-2112.133 -380.452)"/></g><g transform="translate(1839.663 238.957)"><g transform="translate(0)"><path class="n" d="M2423.3,348.149a13.652,13.652,0,0,0-4.4.717,12.181,12.181,0,0,0-23.516,1.674,8.357,8.357,0,0,0-3.248-.655,9.02,9.02,0,0,0-8.769,9.25h52.285C2435.655,353.068,2430.124,348.149,2423.3,348.149Z" transform="translate(-2383.37 -340.585)"/></g></g><g transform="translate(1857.174 299.67)"><g transform="translate(0 0)"><path class="o" d="M2492.479,500.476a21.711,21.711,0,0,0-7.364,1.273c-3.015-8.609-10.506-14.706-19.271-14.706-9.742,0-17.913,7.535-20.106,17.679a13.34,13.34,0,0,0-5.439-1.162c-8.11,0-14.685,7.356-14.685,16.429h87.553C2513.166,509.213,2503.9,500.476,2492.479,500.476Z" transform="translate(-2425.613 -487.043)"/></g></g><g transform="translate(1582.852 639.636)"><rect class="c" width="8.007" height="65.177"/></g><g transform="translate(1571.639 655.068)"><g transform="translate(0 0)"><rect class="c" width="8.007" height="49.745"/></g></g><g transform="translate(1560.426 670.198)"><g transform="translate(0 0)"><rect class="c" width="8.007" height="34.615"/></g></g><g transform="translate(1503.342 551.456)"><g transform="translate(48.182 23.632)"><path class="p" d="M1688.285,1178.671l18.746,10.3,18.825-29.625-22.77-7.908Z" transform="translate(-1688.285 -1151.443)"/></g><g transform="translate(49.371 24.507)"><path class="l" d="M1691.152,1179.017l17.531,9.635,17.6-27.7-21.293-7.4Z" transform="translate(-1691.152 -1153.553)"/></g><g transform="translate(42.951 38.634)"><path class="q" d="M1675.666,1193.787s3.262-1.56,4.7-2.375,5.115-1.936,5.413-2.2,10.921-.922,11.564-1.476,1.271,1.3-1.482,1.905-6.585,2.078-6.795,3.154,2.828,1.331,3.136,2.216-.087.688-.522.878-3.613-1.57-5.009-1.07-3.534-.192-4.6.175-6.278,2.119-6.278,2.119Z" transform="translate(-1675.666 -1187.631)"/></g><g transform="translate(45.14 41.67)"><path class="r" d="M1684.646,1200.379l1.68-.62s-2.1-4.92-3.01-4.8a23.09,23.09,0,0,0-2.369.485Z" transform="translate(-1680.946 -1194.955)"/></g><g transform="translate(38.477 41.342)"><path class="s" d="M1675.62,1200.765c-.215-.16-3.572-6.6-3.572-6.6l-7.174.975,3.876,7.628Z" transform="translate(-1664.873 -1194.164)"/></g><g transform="translate(64.757 38.663)"><path class="q" d="M1731.354,1206.487s2.74-2.468,4.067-3.5,3.816-4.066,4.182-4.244,5.121-9.933,5.9-10.323-.735-1.705-2.375.655-4.521,5.4-5.618,5.174-.153-3.183-.868-3.817-.682-.188-1.03.149.071,4.017-.943,5.14-1.2,3.4-1.958,4.27-4.44,5.092-4.44,5.092Z" transform="translate(-1728.268 -1187.702)"/></g><g transform="translate(1.02 188.777)"><path class="t" d="M1582.3,1550.355s-.592,4.116-.667,4.734-6.6-.364-6.6-.364l-.528-4.9S1581.489,1549.775,1582.3,1550.355Z" transform="translate(-1574.514 -1549.825)"/></g><g transform="translate(0 193.239)"><path class="p" d="M1580.268,1560.868a17.588,17.588,0,0,0,4.064,3.562c2,1.08,5.139,1.508,6.32,2.627.853.809,3.107,4.285-5.192,4.214s-12.3.493-13.193-.841,1.287-9.841,1.287-9.841S1575.521,1561.3,1580.268,1560.868Z" transform="translate(-1572.054 -1560.589)"/></g><g transform="translate(47.749 188.777)"><path class="t" d="M1695.032,1550.355s-.594,4.116-.668,4.734-6.6-.364-6.6-.364l-.528-4.9S1694.216,1549.775,1695.032,1550.355Z" transform="translate(-1687.241 -1549.825)"/></g><g transform="translate(46.73 193.239)"><path class="p" d="M1692.993,1560.868a17.617,17.617,0,0,0,4.065,3.562c2,1.08,9.354,1.969,10.534,3.088.854.807,2.273,4.057-9.406,3.753-8.3-.216-12.3.493-13.191-.841s1.286-9.841,1.286-9.841S1688.134,1561.345,1692.993,1560.868Z" transform="translate(-1684.781 -1560.589)"/></g><g transform="translate(0 83.558)"><path class="p" d="M1586.266,1296s-6.128,9.735-5.671,18.536-2.223,18.409-3.144,27.6c-1.026,10.249-5.226,34.512-5.378,39.995s.653,22.989.653,22.989l8.406.193s7.06-42.42,8.89-46.748,10.9-35.185,11.2-38.648S1586.266,1296,1586.266,1296Z" transform="translate(-1572.054 -1296.002)"/></g><g transform="translate(11.128 81.879)"><path class="p" d="M1634.24,1294.95s4.618,24.121,5.227,29.508,1.015,26.067,1.321,29.434,2.032,44.053,3.657,49.056H1633.7s-8.249-29.579-8.249-43.574-6.374-30.424-10.488-39.657-13.534-9.453-16.062-26.584C1598.9,1293.132,1630.815,1289.516,1634.24,1294.95Z" transform="translate(-1598.897 -1291.953)"/></g><g transform="translate(19.29 0.948)"><path class="q" d="M1623.735,1097.473s8.226-3.072,12.019,3.189,3.428,18.8-.72,20.337-10.374.735-12.5-3.183-4.04-9.581-3.946-13.367S1621.575,1098.566,1623.735,1097.473Z" transform="translate(-1618.588 -1096.719)"/></g><g transform="translate(21.633 17.707)"><path class="q" d="M1637.45,1144.956a7.1,7.1,0,0,0,.223,3.315c.565,1.093-10.657,1.122-10.657,1.122a73.929,73.929,0,0,0-2.636-10.978C1622.651,1133.387,1637.45,1144.956,1637.45,1144.956Z" transform="translate(-1624.239 -1137.148)"/></g><g transform="translate(18.604 0)"><path class="u" d="M1620.1,1113.406s.774,1.279,3.936.783,7.019-4.7,8.338-5.163,1.332-1.238,1.332-1.238l.828,1.207,1.4.089s-1.278-3.763.651-5.3-2-12.178-12.141-8.634c0,0-7.788,2.147-7.505,6.575S1618.359,1111.2,1620.1,1113.406Z" transform="translate(-1616.933 -1094.434)"/></g><g transform="translate(23.129 25.623)"><path class="v" d="M1640.452,1159.318s-.035-2.09-.983-2.29-10.457-1.116-11.62-.657v2.434S1630.09,1160.184,1640.452,1159.318Z" transform="translate(-1627.849 -1156.244)"/></g><g transform="translate(32.214 10.129)"><path class="q" d="M1652.72,1120.483c-.177-.742-2.066-2.865-2.789-.592s1.094,5.33,2.107,5.069S1653.171,1122.368,1652.72,1120.483Z" transform="translate(-1649.765 -1118.869)"/></g><g transform="translate(73.46 53.391)"><path class="w" d="M1749.279,1223.233a.03.03,0,0,0-.016,0C1749.329,1223.26,1749.337,1223.263,1749.279,1223.233Z" transform="translate(-1749.263 -1223.231)"/></g><g transform="translate(5.387 28.183)"><path class="w" d="M1586.96,1240.988a86.9,86.9,0,0,0,13.646,2.434c8.6.949,30.094-.342,30.229-1.358s-4.623-37.841-4.351-39.738.415-8.653.415-8.653a47.638,47.638,0,0,0,4.27,13.537c.822,1.489,3.581,6.157,4.912,5.1,6.439-5.141,16.408-24.512,17.041-24.676-.531-.231-4.726-2.161-5.314-2.358-.515-.172-5.159,4.746-7.974,7.8-1.255,1.359-2.146,2.346-2.146,2.346-.812-1.828-3.772-13.348-4.693-17.335-2.076-8.99-1.755-9.365-1.755-9.365-6.293-1.9-15.846-5.778-15.846-5.778l-12.6-.514s-11.567,2.547-16.122,4.6c-.433.195-.434,10.32-1.62,12.973l3.776,7.969s2.181,15.783,2.634,22.8C1591.668,1213.993,1586.96,1240.988,1586.96,1240.988Z" transform="translate(-1585.049 -1162.421)"/></g><g transform="translate(3.87 32.787)"><path class="w" d="M1582.382,1199.646c.329,1.062,1.823,1.959,2.794,2.351a3.61,3.61,0,0,0,2.018.2l.494-.092h0l8.637-1.6s1.889-21.765-11.8-26.98C1584.163,1173.646,1579.359,1189.9,1582.382,1199.646Z" transform="translate(-1581.389 -1173.527)"/></g><g transform="translate(7.657 50.247)"><path class="x" d="M1590.525,1226.656h0a3.608,3.608,0,0,0,2.018.2l.494-.092h0l-.853-11.123Z" transform="translate(-1590.525 -1215.646)"/></g><g transform="translate(58.025 58.829)"><path class="x" d="M1712.03,1238.694l1.055,4.47a35.3,35.3,0,0,0,1.092-6.816C1712.922,1237.707,1712.03,1238.694,1712.03,1238.694Z" transform="translate(-1712.03 -1236.348)"/></g><g transform="translate(17.44 2.439)"><path class="u" d="M1618.779,1100.318s-10.35,1.051-.184,16.762Z" transform="translate(-1614.124 -1100.318)"/></g><g transform="translate(68.457 25.091)"><path class="p" d="M1745.825,1159.822l1.1-1.882-8.63-2.977-1.1,1.871Z" transform="translate(-1737.194 -1154.962)"/></g></g><g transform="translate(1811.547 292.488)"><path class="c" d="M2356.233,490.063a20.343,20.343,0,1,1-20.344-20.345A20.344,20.344,0,0,1,2356.233,490.063Z" transform="translate(-2315.547 -469.718)"/></g><g transform="translate(1811.547 353.565)"><path class="c" d="M2356.233,637.4a20.343,20.343,0,1,1-20.344-20.343A20.344,20.344,0,0,1,2356.233,637.4Z" transform="translate(-2315.547 -617.055)"/></g><g transform="translate(1816.731 358.75)"><g transform="translate(0 0)"><path class="m" d="M2358.368,644.721a15.158,15.158,0,1,1-15.158-15.158A15.159,15.159,0,0,1,2358.368,644.721Z" transform="translate(-2328.052 -629.563)"/></g></g><g transform="translate(1816.731 297.673)"><g transform="translate(0)"><path class="m" d="M2358.368,497.386a15.158,15.158,0,1,1-15.158-15.159A15.158,15.158,0,0,1,2358.368,497.386Z" transform="translate(-2328.052 -482.227)"/></g></g><g transform="translate(1595.595 336.079)"><g transform="translate(15.909 14.261)"><path class="q" d="M1847.436,623.4s1.434-2.51-.841-9.236a6.779,6.779,0,0,0-12.234-1.747c-2.42,4.168-1.6,6.756,1.961,11.461S1845.957,625.551,1847.436,623.4Z" transform="translate(-1832.977 -609.277)"/></g><g transform="translate(7.731 143.751)"><path class="q" d="M1818.2,922.005s-.377,2.762-.425,3.177-4.191-.245-4.191-.245l-.335-3.289S1817.682,921.615,1818.2,922.005Z" transform="translate(-1813.248 -921.648)"/></g><g transform="translate(7.082 146.747)"><path class="y" d="M1816.9,929.062a11.436,11.436,0,0,0,2.582,2.39c1.269.725,3.265,1.013,4.016,1.764.543.542,1.976,2.875-3.3,2.828s-7.818.33-8.383-.564.818-6.605.818-6.605A14.529,14.529,0,0,0,1816.9,929.062Z" transform="translate(-1811.685 -928.875)"/></g><g transform="translate(36.427 143.751)"><path class="q" d="M1887.422,922.005s-.376,2.762-.423,3.177-4.192-.245-4.192-.245l-.335-3.289S1886.9,921.615,1887.422,922.005Z" transform="translate(-1882.472 -921.648)"/></g><g transform="translate(35.778 146.747)"><path class="z" d="M1886.126,929.062a11.427,11.427,0,0,0,2.584,2.39c1.27.725,5.944,1.321,6.694,2.073.542.541,1.444,2.723-5.978,2.519-5.273-.145-7.818.33-8.383-.564s.818-6.605.818-6.605A21.793,21.793,0,0,0,1886.126,929.062Z" transform="translate(-1880.908 -928.875)"/></g><g transform="translate(7.264 75.326)"><path class="aa" d="M1818.937,756.586s-2.125,6.6-1.846,12.293-1.1,11.918-1.661,17.863c-.629,6.627-3.2,22.316-3.294,25.861s.4,14.864.4,14.864l5.146.125s4.323-27.428,5.441-30.226,6.673-22.75,6.859-24.99S1818.937,756.586,1818.937,756.586Z" transform="translate(-1812.124 -756.586)"/></g><g transform="translate(14.078 73.238)"><path class="ab" d="M1849.9,752.949s3.123,17.46,3.5,20.942.622,16.855.808,19.031,1.244,28.485,2.24,31.719H1850.7s-5.892-19.126-5.892-28.174-3.9-19.673-6.422-25.642-8.284-6.112-9.831-17.19C1828.559,753.636,1847.8,749.436,1849.9,752.949Z" transform="translate(-1828.559 -751.548)"/></g><g transform="translate(19.161 28.101)"><path class="q" d="M1849.946,644.721a4.99,4.99,0,0,0,0,3.229c.648,1.345-8.271.538-8.271.538a9.588,9.588,0,0,0-.761-5.064C1839.748,641.139,1849.946,644.721,1849.946,644.721Z" transform="translate(-1840.821 -642.662)"/></g><g transform="translate(13.663 74.639)"><path class="ac" d="M1827.558,757.054s3.207,3.294,22.041-.513l-.287-1.613-21.409.806Z" transform="translate(-1827.558 -754.928)"/></g><g transform="translate(0 10.893)"><path class="q" d="M1824.234,624.085s3.293.336,4.235.514,7.277-1.133,8.577-1.268,6.84-3.931,7.02-4.379,3.37-8.53,3.55-10.279,3.108-.845,2.857.36c-.469,2.252-1.073,7.722-1.4,9.306-.357,1.712-1.314,5.589-1.853,6.066a38.659,38.659,0,0,1-10.412,5.886,41.565,41.565,0,0,0-8.561,3.988h-24.074s-9.362-13.385-9.565-15.4,6.542-15.42,7.886-17.1,3.288.549,3.288.549-4.028,11.819-4.566,13.5,4.685,9.065,6.119,9.088,5.116-.448,6.752-.516a11.468,11.468,0,0,0,3.361-.783Z" transform="translate(-1794.599 -601.151)"/></g><g transform="translate(3.05 29.601)"><path class="ad" d="M1838.916,659.446a7.778,7.778,0,0,0-3.215,5.321,69.615,69.615,0,0,1-1.882,10.486c-.538,1.815.471,14.99.6,15.931s-18.628,3.177-21.509.941c0,0-.807-12.3-1.144-15.8s-1.948-11.966-2.487-13.108-7.058-10.289-7.327-11.494c0,0,3.373-5.378,5.794-5.446,0,0,3.842,4.505,5.1,4.706s8.935-1.206,8.935-1.218.839,1.142,5.3-.2c0,0,5.307.6,6.169.71,1.047.133,8.314-.912,8.314-.912s2.915,4.924,2.406,7.409Z" transform="translate(-1801.956 -646.28)"/></g><g transform="translate(49.816 6.129)"><path class="q" d="M1917.8,603s.659-3.114-.134-4.009c-.451-.509-1.536-1.856-1.635-2.055s-1.263-.867-1.263-1.188,1.139-.718,2.13.2,1.609,1.114,2.007,1.016.964-3.393,1.014-4.21.365-2.971.876-2.823.485,1.09.485,1.09.6-1.635.992-1.313.346,1.114.346,1.114.742-.916.941-.247a2.306,2.306,0,0,1,0,1.263s.768-.421.818.619a15.812,15.812,0,0,1-.768,5.175c-.545,1.09-2.584,3.94-2.828,5.053S1917.8,603,1917.8,603Z" transform="translate(-1914.772 -589.659)"/></g><g transform="translate(7.729)"><path class="q" d="M1816.037,588.87s2.241-3.766,3-4.1a12.828,12.828,0,0,0,2.78-1.2c.941-.672,2.185-1.232,2.117-1.456s-1.177-.135-2.363.381-1.709.267-1.821,0a6.951,6.951,0,0,1,.991-2.615c.36-.447,2.914-3.017,2.488-3.4s-2.085,1.031-2.353,1.322c0,0,1.321-2.779.806-2.914s-1.48.852-1.48.852.112-2.375-2.442,1.479c0,0,.538-1.277-.246-.851s-1.547,2.823-1.793,4.033-1.364,5.065-2.318,5.995S1816.037,588.87,1816.037,588.87Z" transform="translate(-1813.243 -574.874)"/></g><g transform="translate(15.464 13.69)"><path class="ae" d="M1835.693,623.071a10.163,10.163,0,0,0,3.689-.762c2.51-.866,2.7-5.255,3.24-4.736a1.586,1.586,0,0,0,2.572-.3s-1.227-1.613-.659-2.39a6.008,6.008,0,0,1,1.493-1.344s-1.764-8.507-9.8-4.632C1826.819,613.451,1835.693,623.071,1835.693,623.071Z" transform="translate(-1831.903 -607.898)"/></g><g transform="translate(19.785 32.148)"><path class="ad" d="M1850.827,653.667l-.283-1.229a65.2,65.2,0,0,0-7.925.3l-.293,1.471S1845.907,655.833,1850.827,653.667Z" transform="translate(-1842.326 -652.426)"/></g><g transform="translate(24.625 21.622)"><path class="q" d="M1856.4,627.7c-.466-.774-2.187-1.3-2.39.9-.157,1.7,3.077,3.556,3.107,1.972A4.786,4.786,0,0,0,1856.4,627.7Z" transform="translate(-1854.004 -627.033)"/></g><g transform="translate(52.734 18.76)"><path class="af" d="M1922.047,620.128a5.108,5.108,0,0,1,2.747.856,1.855,1.855,0,0,1-.15.921,11.407,11.407,0,0,0-2.833-.889S1921.832,620.343,1922.047,620.128Z" transform="translate(-1921.811 -620.128)"/></g><g transform="translate(53.622 18.734)"><path class="ae" d="M1925.482,620.553a.8.8,0,1,1-1.042-.423A.794.794,0,0,1,1925.482,620.553Z" transform="translate(-1923.953 -620.067)"/></g></g><g transform="translate(1780.651 554.489)"><g transform="translate(0)"><rect class="ag" width="18.331" height="77.808"/></g></g><g transform="translate(1822.725 554.489)"><g transform="translate(0)"><rect class="ag" width="18.331" height="77.808"/></g></g><g transform="translate(1864.798 554.489)"><g transform="translate(0)"><rect class="ag" width="18.329" height="77.808"/></g></g><g transform="translate(1816.731 547.387)"><g transform="translate(0)"><path class="g" d="M2358.368,1099.779h-30.316a15.158,15.158,0,1,1,30.316,0Z" transform="translate(-2328.052 -1084.619)"/></g></g><g transform="translate(1858.805 547.387)"><g transform="translate(0)"><path class="g" d="M2459.864,1099.779h-30.317a15.158,15.158,0,1,1,30.317,0Z" transform="translate(-2429.547 -1084.619)"/></g></g><g transform="translate(1770.559 581.212)"><g transform="translate(0 0)"><path class="n" d="M2348.967,1191.275a45.281,45.281,0,0,0-14.569,2.376c-5.966-16.062-20.784-27.435-38.129-27.435-19.275,0-35.44,14.056-39.781,32.98a27.758,27.758,0,0,0-10.761-2.167c-16.047,0-29.056,13.721-29.056,30.648H2389.9C2389.9,1207.574,2371.573,1191.275,2348.967,1191.275Z" transform="translate(-2216.67 -1166.215)"/></g></g><g transform="translate(1740.049 607.405)"><g transform="translate(0 0)"><path class="m" d="M2275.368,1255.979a42.932,42.932,0,0,0-14.569,2.519c-5.966-17.034-20.786-29.1-38.129-29.1-19.277,0-35.44,14.907-39.782,34.979a26.387,26.387,0,0,0-10.761-2.3c-16.047,0-29.057,14.554-29.057,32.508H2316.3C2316.3,1273.265,2297.974,1255.979,2275.368,1255.979Z" transform="translate(-2143.07 -1229.4)"/></g></g><g transform="translate(1824.18 628.615)"><g transform="translate(0)"><path class="o" d="M2494.715,1305.947a56.032,56.032,0,0,0-16.375,2.406c-6.7-16.266-23.362-27.786-42.854-27.786-21.667,0-39.833,14.235-44.713,33.4a34.148,34.148,0,0,0-12.095-2.2c-18.036,0-32.657,13.9-32.657,31.04h194.7C2540.72,1322.455,2520.122,1305.947,2494.715,1305.947Z" transform="translate(-2346.021 -1280.567)"/></g></g><g transform="translate(1709.995 642.673)"><g transform="translate(0 0)"><path class="n" d="M2185.681,1334.128a43.38,43.38,0,0,0-12.676,1.862c-5.191-12.592-18.086-21.511-33.177-21.511-16.773,0-30.837,11.021-34.615,25.859a26.464,26.464,0,0,0-9.362-1.7c-13.962,0-25.283,10.758-25.283,24.029H2221.3C2221.3,1346.908,2205.351,1334.128,2185.681,1334.128Z" transform="translate(-2070.568 -1314.479)"/></g></g><g transform="translate(1972.386 589.211)"><path class="q" d="M2711.462,1190.322s-.917-2.271-1.068-2.615a5.881,5.881,0,0,0-2.1-1.453,6.838,6.838,0,0,0-2.943-.721,1.054,1.054,0,0,0-.646.6,2.009,2.009,0,0,0-.167,1.011,1.231,1.231,0,0,0-.436,1.106,1.07,1.07,0,0,0-.243,1.167.9.9,0,0,0-.249.958,8.105,8.105,0,0,1,1.151.864,17.1,17.1,0,0,0,4.179,2.059S2711.05,1193.337,2711.462,1190.322Z" transform="translate(-2703.542 -1185.512)"/></g><g transform="translate(1974.706 592.782)"><g transform="translate(0 0)"><path class="ah" d="M2711.488,1194.125a6,6,0,0,0,.146,1.578c.169.349-2.5,1.122-2.5,1.122S2709.991,1194.137,2711.488,1194.125Z" transform="translate(-2709.138 -1194.125)"/></g></g><g transform="translate(2020.657 709.401)"><g transform="translate(0 0)"><path class="ai" d="M2826.069,1479.072l-1.163-3.624-4.919.8.735,3.267Z" transform="translate(-2819.987 -1475.448)"/></g></g><g transform="translate(1980.754 710.714)"><path class="aj" d="M2729.39,1480.5l-.276,1.99-5.387-.9.288-2.975Z" transform="translate(-2723.728 -1478.615)"/></g><g transform="translate(1998.078 640.546)"><g transform="translate(0 0)"><path class="ak" d="M2765.52,1325.618s.794,4.324,1.715,9.121c.159.834.323,1.686.488,2.53.9,4.623,1.809,9.07,2.145,9.99.764,2.092,17.254,32.307,17.254,32.307s6.744-.514,7-1.38c0,0-13.824-32.808-13.746-34.005s-1.689-34.83-1.689-34.83S2765.887,1323.676,2765.52,1325.618Z" transform="translate(-2765.52 -1309.349)"/></g></g><g transform="translate(1980.546 635.125)"><g transform="translate(0 0)"><path class="ak" d="M2733.225,1299.772s-6.452,33.039-7,35.568-2.995,36.374-2.995,36.374,1.449,2.991,6.8,1.865c0,0,7.3-36.364,7.918-37.583,2.389-4.729,14.112-27.639,15.247-30.908a19.613,19.613,0,0,0,.8-7.085S2745.289,1293.109,2733.225,1299.772Z" transform="translate(-2723.226 -1296.27)"/></g></g><g transform="translate(1977.602 592.918)"><g transform="translate(0)"><path class="p" d="M2731.78,1197.367s-2.831,7.054-3.542,6.847-8.844-9.76-8.844-9.76-3.721,4.644-3.224,5.177c.7.742,10.3,16.711,11.622,16.423s7.227-10.05,7.227-10.05S2735.354,1198.642,2731.78,1197.367Z" transform="translate(-2716.125 -1194.454)"/></g></g><g transform="translate(1988.762 582.359)"><g transform="translate(0)"><path class="w" d="M2759.645,1168.983s-7.341,5.61-9.365,7.834-7.615,11.451-7.213,14.225a201.322,201.322,0,0,1,2.326,26.969c.041,6.324-1.975,7.937-.719,8.032,1.44.107,19.907,6.8,22.64,7.614,0,0-1.79-22.269-2.7-24.838S2767.52,1179.322,2759.645,1168.983Z" transform="translate(-2743.047 -1168.983)"/></g></g><g transform="translate(1954.801 571.72)"><path class="al" d="M2664.416,1143.317l-1.646,8.3-1.647,8.3a45.228,45.228,0,0,1,20.116-.826l.726-3.659.73-3.682A45.358,45.358,0,0,1,2664.416,1143.317Z" transform="translate(-2661.122 -1143.317)"/></g><g transform="translate(1968.117 712.193)"><path class="g" d="M2711.268,1484.575s-4.066-.786-4.208-.91-1.014-1.729-1.643-1.45-.637,2.234-1.25,2.565-5.467,3.609-6.063,4.207-4.271.245-4.692,1.282-.457,3.487,5.025,2.91,11.742.316,12.921-.333S2711.645,1486.153,2711.268,1484.575Z" transform="translate(-2693.244 -1482.183)"/></g><g transform="translate(2010.032 711.478)"><g transform="translate(0)"><path class="g" d="M2811.129,1481.915s-4.139-.125-4.3-.225-1.28-1.545-1.855-1.167-.269,2.309-.823,2.731-4.817,4.439-5.311,5.122-4.177.926-4.426,2.017.106,3.515,5.425,2.069,11.64-1.568,12.7-2.4S2811.754,1483.414,2811.129,1481.915Z" transform="translate(-2794.358 -1480.46)"/></g></g><g transform="translate(1993.279 640.157)"><g transform="translate(0)"><path class="am" d="M2755.326,1308.409s-.495,2.012-1.29,2.448,3.705,4.736,3.705,4.736a37.756,37.756,0,0,0,1.774-4.389C2759.465,1310.8,2755.326,1308.409,2755.326,1308.409Z" transform="translate(-2753.942 -1308.409)"/></g></g><g transform="translate(1993.605 588.437)"><g transform="translate(0)"><path class="an" d="M2769.744,1186.266s5.268,25.053,5.7,27.618c.41,2.43-15.441,25.608-15.441,25.608l-5.271-3.126s12.791-23.256,12.772-24.317-6.139-21.257-6.139-21.257-2.557-4.4,1.979-6.535A4.521,4.521,0,0,1,2769.744,1186.266Z" transform="translate(-2754.73 -1183.645)"/></g></g><g transform="translate(1989.96 641.886)"><g transform="translate(0 0)"><path class="ak" d="M2747.549,1312.581s-1.711,8.518-1.606,11.128,9.833-4.106,9.339-6.7Z" transform="translate(-2745.938 -1312.581)"/></g></g><g transform="translate(1992.779 573.912)"><g transform="translate(0)"><path class="q" d="M2765.317,1157.051s-13.367,14.6-12.544,12.983c2.936-5.771,4.984-6.746,4.944-7.822-.032-.824-.354-3.225-.408-4.029-.1-1.529-.22-2.773-.22-2.773s6.637-9.322,6.344-6.146S2765.317,1157.051,2765.317,1157.051Z" transform="translate(-2752.737 -1148.604)"/></g></g><g transform="translate(1989.781 562.547)"><g transform="translate(0 0)"><path class="q" d="M2748.352,1123.814s-1.838,4.313-1.863,5.323a21.765,21.765,0,0,1,.073,2.948c-.164,1.2-1.172,3.733-1.048,4.432.15.845,1.929.406,2.174,1.8s1.539,4.007,2.183,4.06c1.655.135,7.992-2.448,8.4-3.774s2.7-8.718,3.414-10.124-11.164-9.111-12.246-6.887Z" transform="translate(-2745.504 -1121.189)"/></g></g><g transform="translate(1990.507 561.42)"><g transform="translate(0 0)"><path class="ao" d="M2765.531,1125.422c.84-3.66-3.368-4.11-3.368-4.11s-2.74-3.189-9.3-2.811-5.556,8.933-5.556,8.933,4.536-.677,6.509-.179a31.158,31.158,0,0,1,.027,4.559l2.471-.22s-.276-3.242.912-3.4,1.586,6.865,3.8,8.412a2.416,2.416,0,0,1,.3-.982h0a28.137,28.137,0,0,0,1.72-3.58A40.524,40.524,0,0,0,2765.531,1125.422Z" transform="translate(-2747.256 -1118.47)"/></g></g><g transform="translate(1998.577 570.522)"><g transform="translate(0 0)"><path class="q" d="M2766.98,1141.838a1.878,1.878,0,0,1,3.094-.871c1.58,1.168-.046,5.348-1.585,5.327S2766.325,1144,2766.98,1141.838Z" transform="translate(-2766.722 -1140.426)"/></g></g><g transform="translate(1997.314 578.801)"><g transform="translate(0 0)"><path class="ap" d="M2769.262,1160.4a4.832,4.832,0,0,1-.677,1.622,14.21,14.21,0,0,1-4.909,2.565l.257,2.592S2769.552,1165.009,2769.262,1160.4Z" transform="translate(-2763.677 -1160.398)"/></g></g><g transform="translate(1972.481 587.038)"><g transform="translate(0 0)"><path class="aq" d="M2704.715,1189.791l-.943-.449,4.275-9.072,2.4,1.13-3.624,7.691A1.479,1.479,0,0,1,2704.715,1189.791Z" transform="translate(-2703.772 -1180.27)"/></g></g><g transform="translate(1972.385 589.233)"><g transform="translate(0 0)"><path class="ar" d="M2705.634,1185.7s2.677,1.467,2.493,1.927a.778.778,0,0,1-.53.519l.827,1.1s.135,1.04-1.037.883c0,0,.227.959-.887.673,0,0-.133.7-.672.657a10.181,10.181,0,0,1-2.221-1.057s-.26-.373.249-.958a1.053,1.053,0,0,1,.243-1.167,1.161,1.161,0,0,1,.436-1.106s-.246-1.306.813-1.609C2705.348,1185.563,2705.522,1185.635,2705.634,1185.7Z" transform="translate(-2703.541 -1185.563)"/></g></g><g transform="translate(1972.878 579.52)"><g transform="translate(0 0)"><path class="ak" d="M2714.161,1171.627l-9.432-1.759,1.536-7.734,9.358,2.132Z" transform="translate(-2704.729 -1162.134)"/></g></g><g transform="translate(1975.413 591.349)"><path class="q" d="M2714.591,1190.671a10.388,10.388,0,0,0-3.25.411c-.262.107-.5.257-.5.541s.41.642,1.316.714a7.62,7.62,0,0,1,2.042.58S2715.156,1192.717,2714.591,1190.671Z" transform="translate(-2710.844 -1190.669)"/></g><g transform="translate(1999.793 654.289)"><path class="as" d="M2769.656,1354.148c.16.834.323,1.686.488,2.529l5.355-14.176C2774.792,1343.931,2769.656,1354.148,2769.656,1354.148Z" transform="translate(-2769.656 -1342.501)"/></g><g transform="translate(1774.658 547.387)"><g transform="translate(0)"><path class="g" d="M2256.874,1099.779h-30.317a15.158,15.158,0,1,1,30.317,0Z" transform="translate(-2226.557 -1084.619)"/></g></g></g></svg>